# xmcd
#
# Track frame offsets:
#	150
#	1525
#	21646
#	38323
#	53870
#	77551
#	97250
#	113851
#	136360
#	154937
#	170875
#	195157
#	210469
#	234106
#	255435
#	273559
#	295096
#
# Disc length: 4144 seconds
#
# Revision: 0
# Processed by: cddbd v1.4PL0 Copyright (c) Steve Scherf et al.
# Submitted via: dBpowerAMP V4.0
#
DISCID=db102e11
DTITLE=Department Of Sacred Music and Communications - MARAMON CONVENTION
DYEAR=2002
DGENRE=Acid Jazz
TTITLE0=hjfgj
TTITLE1=ghjdfh
TTITLE2=dgfh
TTITLE3=ghdfgh
TTITLE4=ghg
TTITLE5=cvc
TTITLE6=sdfdfd
TTITLE7=dgfd
TTITLE8=dfdfd
TTITLE9=hjjjj
TTITLE10=gfdg
TTITLE11=35
TTITLE12=dgff
TTITLE13=fgfgfg
TTITLE14=gfgd
TTITLE15=gfgd
TTITLE16=fdgfg
EXTD=MORAMON CONVENTION SONGS 2002
EXTT0=
EXTT1=
EXTT2=
EXTT3=
EXTT4=
EXTT5=
EXTT6=
EXTT7=
EXTT8=
EXTT9=
EXTT10=
EXTT11=
EXTT12=
EXTT13=
EXTT14=
EXTT15=
EXTT16=
PLAYORDER=
